<svg width="859" height="202" viewBox="0 0 859 202" fill="none" xmlns="http://www.w3.org/2000/svg">
<g clip-path="url(#clip0_4460_15815)">
<path d="M433.326 49.6055H398.475L390.239 57.8416L381.997 49.6055H363.391V195.624H406.64V102.6L446.487 62.7598L433.326 49.6055Z" fill="white"/>
<path d="M259.047 42.0918C243.326 42.0905 227.958 46.7512 214.885 55.4844C201.813 64.2176 191.624 76.6311 185.607 91.1552C179.59 105.679 178.015 121.661 181.081 137.08C184.147 152.5 191.717 166.663 202.833 177.78C213.949 188.897 228.112 196.468 243.531 199.536C258.95 202.603 274.932 201.029 289.457 195.013C303.981 188.998 316.396 178.81 325.13 165.738C333.864 152.667 338.526 137.299 338.526 121.578C338.524 100.498 330.15 80.2827 315.246 65.3768C300.341 50.4709 280.126 42.0952 259.047 42.0918ZM259.047 157.814C251.88 157.814 244.874 155.689 238.915 151.707C232.956 147.725 228.312 142.066 225.569 135.445C222.826 128.823 222.109 121.537 223.507 114.508C224.905 107.479 228.356 101.022 233.424 95.9546C238.492 90.8868 244.948 87.4357 251.978 86.0375C259.007 84.6393 266.293 85.3569 272.914 88.0995C279.535 90.8422 285.195 95.4867 289.176 101.446C293.158 107.405 295.283 114.411 295.283 121.578C295.282 131.187 291.463 140.403 284.668 147.199C277.873 153.994 268.657 157.812 259.047 157.814Z" fill="white"/>
<path d="M857.916 119.293C857.4 101.413 850.866 84.2294 839.372 70.5229C827.878 56.8164 812.097 47.3883 794.58 43.7638C777.063 40.1393 758.835 42.5304 742.846 50.5502C726.857 58.57 714.041 71.7495 706.471 87.9568C698.901 104.164 697.02 122.451 701.133 139.86C705.246 157.269 715.111 172.781 729.133 183.887C743.156 194.993 760.515 201.044 778.403 201.061C796.291 201.077 813.661 195.059 827.704 183.979L839.349 195.624H857.949V119.293H857.916ZM778.463 157.813C771.297 157.812 764.291 155.685 758.333 151.703C752.375 147.72 747.731 142.061 744.99 135.439C742.248 128.818 741.531 121.532 742.93 114.503C744.329 107.474 747.781 101.018 752.849 95.9513C757.917 90.8842 764.374 87.4337 771.403 86.036C778.432 84.6384 785.717 85.3563 792.338 88.0992C798.959 90.842 804.618 95.4865 808.599 101.445C812.581 107.404 814.706 114.41 814.706 121.577C814.706 126.336 813.768 131.048 811.947 135.445C810.126 139.842 807.456 143.837 804.09 147.202C800.725 150.567 796.729 153.236 792.332 155.056C787.935 156.877 783.222 157.814 778.463 157.813Z" fill="white"/>
<path d="M187.017 0.253906H120.322L51.6093 97.8708H50.2236H0.253906V197.452H54.8361V104.422L120.322 197.452H187.017L117.615 98.8532L187.017 0.253906Z" fill="white"/>
<path d="M635.535 92.3398V195.623H678.785V116.99L654.135 92.3398H635.535Z" fill="white"/>
<path d="M566.243 0.253906V50.8156C553.541 44.312 539.322 41.3477 525.079 42.2341C510.835 43.1204 497.093 47.8247 485.295 55.853C473.497 63.8813 464.078 74.9377 458.026 87.8615C451.974 100.785 449.512 115.1 450.9 129.303C452.288 143.506 457.474 157.074 465.913 168.582C474.352 180.09 485.733 189.114 498.862 194.706C511.992 200.299 526.384 202.254 540.529 200.367C554.675 198.479 568.051 192.819 579.254 183.979L590.9 195.624H609.506V24.8972L584.849 0.253906H566.243ZM530.007 157.814C522.84 157.814 515.834 155.688 509.875 151.707C503.916 147.725 499.272 142.066 496.529 135.444C493.786 128.823 493.069 121.537 494.467 114.508C495.865 107.479 499.316 101.022 504.384 95.9544C509.452 90.8866 515.908 87.4354 522.938 86.0373C529.967 84.6391 537.253 85.3567 543.874 88.0993C550.495 90.842 556.155 95.4865 560.136 101.445C564.118 107.405 566.243 114.41 566.243 121.577C566.243 131.188 562.425 140.405 555.63 147.2C548.834 153.996 539.617 157.814 530.007 157.814Z" fill="white"/>
<path d="M53.7543 35.9946C58.4238 21.5202 50.4754 6.00091 36.0009 1.33138C21.5265 -3.33816 6.00728 4.61028 1.33775 19.0847C-3.33178 33.5591 4.61665 49.0784 19.0911 53.7479C33.5655 58.4174 49.0847 50.469 53.7543 35.9946Z" fill="#DA8A15"/>
<path d="M683.621 58.0649C688.291 43.5905 680.343 28.0712 665.868 23.4017C651.394 18.7321 635.874 26.6806 631.205 41.155C626.535 55.6295 634.484 71.1487 648.958 75.8182C663.433 80.4877 678.952 72.5393 683.621 58.0649Z" fill="#DA8A15"/>
</g>
<defs>
<clipPath id="clip0_4460_15815">
<rect width="858.216" height="201.063" fill="white"/>
</clipPath>
</defs>
</svg>
